<svg width="13" height="18" viewBox="0 0 13 18" fill="none" xmlns="http://www.w3.org/2000/svg">
<path fill-rule="evenodd" clip-rule="evenodd" d="M6 1.5H6.75C7.99264 1.5 9 2.50736 9 3.75V6.75H3.75V3.75C3.75 2.50736 4.75736 1.5 6 1.5ZM2.25 6.75V3.75C2.25 1.67893 3.92893 0 6 0H6.75C8.82107 0 10.5 1.67893 10.5 3.75V6.75H11.25C12.0784 6.75 12.75 7.42157 12.75 8.25V16.5C12.75 17.3284 12.0784 18 11.25 18H1.5C0.671573 18 0 17.3284 0 16.5V8.25C0 7.42157 0.671573 6.75 1.5 6.75H2.25Z" fill="#CDD6EB"/>
</svg>
